:version 1.10
:name ASF
:units
  mass 1
  length 1
  angle deg
:documentation
  ASF file generated by Kaydara
:root
  axis xyz
  order  tx ty tz rx ry rz
  position 0 0 0
  orientation 0 0 0
:bonedata
  begin
    id 1
    name RightUpLegDummy
    direction -0.718183 -0.695806 0.00816078
    length 4.904
    axis 0 0 0 xyz
  end
  begin
    id 2
    name RightUpLeg
    direction -0.0736652 -0.994202 0.0783343
    length 17.4976
    axis -2.72909 -3.00389 -4.00133 xyz
    dof rx ry rz
  end
  begin
    id 3
    name RightLeg
    direction -0.0389037 -0.994596 -0.0962598
    length 16.5821
    axis 3.95836 -18.5909 -4.46993 xyz
    dof rx ry rz
  end
  begin
    id 4
    name RightFoot
    direction -0.311643 -0.412678 0.855906
    length 3.77069
    axis -1.99483 -18.8351 -3.27644 xyz
    dof rx ry rz
  end
  begin
    id 5
    name RightToes
    direction -0.317852 0.0389852 0.947339
    length 3.85082
    axis -2.00228 -18.1713 -3.25211 xyz
    dof rx ry rz
  end
  begin
    id 6
    name SpineDummy
    direction 8.3039e-015 1 4.44677e-016
    length 4.6813
    axis 0 0 0 xyz
  end
  begin
    id 7
    name Spine
    direction -0.000262373 0.999988 0.00493267
    length 10.1015
    axis -0.00246081 0.00062579 0.0150362 xyz
    dof rx ry rz
  end
  begin
    id 8
    name Spine1
    direction 0 0 0
    length 0
    axis -0.00349562 0.000650293 0.0196666 xyz
    dof rx ry rz
  end
  begin
    id 9
    name HEadDummy
    direction -0.000343232 0.999999 0.00123745
    length 3.43865
    axis -0.00349562 0.000650293 0.0196666 xyz
  end
  begin
    id 10
    name HEad
    direction -0.0461221 0.980933 0.188796
    length 5.12695
    axis -0.00351404 -7.04812 0.0199272 xyz
    dof rx ry rz
  end
  begin
    id 11
    name LeftShoulder1Dummy
    direction 0.998904 -0.0399089 -0.0244534
    length 3.5433
    axis -0.00349562 0.000650293 0.0196666 xyz
  end
  begin
    id 12
    name LeftShoulder1
    direction 0.99951 1.64443e-005 0.0312999
    length 4.05031
    axis -0.00349562 0.000650293 0.0196666 xyz
    dof rx ry rz
  end
  begin
    id 13
    name LeftArm
    direction 0.984791 0.0515299 0.165927
    length 12.9126
    axis -64.823 -10.7743 5.20463 xyz
    dof rx ry rz
  end
  begin
    id 14
    name LeftForeArm
    direction 0.984968 0.0534808 0.16425
    length 10.8596
    axis -30.0462 -7.70601 1.87451 xyz
    dof rx ry rz
  end
  begin
    id 15
    name LeftHand
    direction 0.975871 0.0289682 0.216418
    length 6.62295
    axis -20.1348 -6.98077 1.86072 xyz
    dof rx ry rz
  end
  begin
    id 16
    name RightShoulderDummy
    direction -0.998877 -0.0405946 -0.0244307
    length 3.5433
    axis -0.00349562 0.000650293 0.0196666 xyz
  end
  begin
    id 17
    name RightShoulder
    direction -0.998933 -0.0249743 -0.0388558
    length 4.05031
    axis -0.0205316 -4.02113 1.41395 xyz
    dof rx ry rz
  end
  begin
    id 18
    name RightArm
    direction -0.997559 0.068664 0.0127103
    length 12.9638
    axis -67.3882 1.84188 -6.15987 xyz
    dof rx ry rz
  end
  begin
    id 19
    name RightForeArm
    direction -0.991508 0.0912848 0.0926241
    length 10.8312
    axis -22.1975 3.41087 -4.28711 xyz
    dof rx ry rz
  end
  begin
    id 20
    name RightHand
    direction -0.989262 0.0600788 0.133232
    length 6.57864
    axis -12.2911 2.17515 -4.39675 xyz
    dof rx ry rz
  end
  begin
    id 21
    name LeftUpLegDummy
    direction 0.718183 -0.695806 0.00816078
    length 4.904
    axis 0 0 0 xyz
  end
  begin
    id 22
    name LeftUpLeg
    direction 0.0831398 -0.99469 0.0606531
    length 17.4976
    axis -1.71016 2.29552 4.63832 xyz
    dof rx ry rz
  end
  begin
    id 23
    name LeftLeg
    direction 0.0498442 -0.991778 -0.117862
    length 16.5821
    axis 5.13757 15.5727 5.13348 xyz
    dof rx ry rz
  end
  begin
    id 24
    name LeftFoot
    direction 0.269026 -0.433896 0.85986
    length 3.77069
    axis -0.576502 15.6961 4.10267 xyz
    dof rx ry rz
  end
  begin
    id 25
    name LeftToes
    direction 0.277311 0.0251143 0.960452
    length 3.85048
    axis -0.576502 15.6961 4.10267 xyz
    dof rx ry rz
  end
:hierarchy
  begin
    root RightUpLegDummy SpineDummy LeftUpLegDummy
    RightUpLegDummy RightUpLeg
    RightUpLeg RightLeg
    RightLeg RightFoot
    RightFoot RightToes
    SpineDummy Spine
    Spine Spine1
    Spine1 HEadDummy LeftShoulder1Dummy RightShoulderDummy
    HEadDummy HEad
    LeftShoulder1Dummy LeftShoulder1
    LeftShoulder1 LeftArm
    LeftArm LeftForeArm
    LeftForeArm LeftHand
    RightShoulderDummy RightShoulder
    RightShoulder RightArm
    RightArm RightForeArm
    RightForeArm RightHand
    LeftUpLegDummy LeftUpLeg
    LeftUpLeg LeftLeg
    LeftLeg LeftFoot
    LeftFoot LeftToes
  end

:SAMPLES-PER-SECOND 30
:FULLY-SPECIFIED
:DEGREES
152
root  -2.17267 18.6569 -63.7033 43.3586 -3.06304 2.52554
RightUpLeg  -53.3449 1.92026 6.77246
RightLeg  123.07 21.5896 -8.64611
RightFoot  -47.9553 3.53254 10.7261
RightToes  5.82077e-011 -3.18055e-015 -2.98177e-016
Spine  40.3248 -1.19884 19.0133
Spine1  -6.81887 6.62701 -5.04667
HEad  -17.2855 -7.20763 16.2578
LeftShoulder1  -3.88251e-019 9.70628e-020 -3.87848e-018
LeftArm  -5.21084 -4.81799 -61.908
LeftForeArm  8.06457 -21.2708 -0.539851
LeftHand  -6.56098 -13.392 39.9857
RightShoulder  5.8442 11.1133 25.6876
RightArm  -3.94918 0.648322 55.8705
RightForeArm  26.5188 18.5964 -11.5897
RightHand  -13.9036 11.8074 -78.6022
LeftUpLeg  -54.9109 5.4393 9.20336
LeftLeg  125.745 -20.5172 9.56545
LeftFoot  -37.9209 -2.59374 -11.2976
LeftToes  9.37148e-011 4.50685e-012 -4.11107e-011
153
root  -1.99115 18.6309 -63.2789 42.9145 -5.27156 1.99033
RightUpLeg  -51.7678 3.21204 4.798
RightLeg  122.558 21.0954 -8.10119
RightFoot  -48.3663 3.6098 10.8299
RightToes  5.82077e-011 -3.18055e-015 -2.98177e-016
Spine  40.9308 -0.314807 17.9698
Spine1  -6.44467 7.33527 -5.39739
HEad  -17.8931 -6.86541 15.7933
LeftShoulder1  -3.88251e-019 9.70628e-020 -3.87848e-018
LeftArm  -6.72088 -9.77093 -61.1099
LeftForeArm  5.23395 -21.4047 0.136184
LeftHand  -6.02892 -12.6363 38.4673
RightShoulder  5.96863 11.1138 26.3372
RightArm  -3.75859 0.721225 55.052
RightForeArm  26.6341 18.3237 -11.4829
RightHand  -14.1026 11.8591 -79.2392
LeftUpLeg  -56.2465 6.06731 7.82387
LeftLeg  128.736 -18.0558 5.85987
LeftFoot  -39.8373 -2.62033 -10.5367
LeftToes  9.37148e-011 4.50685e-012 -4.11107e-011
154
root  -1.748 18.6122 -62.818 42.837 -7.74097 0.893415
RightUpLeg  -50.62 4.85379 3.07484
RightLeg  121.712 20.7131 -7.77999
RightFoot  -48.633 3.73835 11.1399
RightToes  5.82077e-011 -3.18055e-015 -2.98177e-016
Spine  41.9718 0.749055 16.7809
Spine1  -7.16489 8.10239 -5.93126
HEad  -17.9444 -6.49556 15.3095
LeftShoulder1  -3.88251e-019 9.70628e-020 -3.87848e-018
LeftArm  -8.41269 -14.6337 -60.1358
LeftForeArm  4.82108 -20.5998 -0.0586272
LeftHand  -5.73715 -11.8915 38.2376
RightShoulder  6.06273 11.0883 26.8743
RightArm  -3.31254 0.0199973 54.2353
RightForeArm  26.7108 18.401 -11.4372
RightHand  -14.4582 12.0891 -79.9115
LeftUpLeg  -57.5157 7.47517 6.095
LeftLeg  130.017 -15.9203 3.24852
LeftFoot  -40.2583 -2.52008 -9.93593
LeftToes  9.37148e-011 4.50685e-012 -4.11107e-011
155
root  -1.42816 18.6186 -62.3079 43.0509 -9.84138 -0.238552
RightUpLeg  -49.7402 6.02325 1.42707
RightLeg  120.569 20.3897 -7.59859
RightFoot  -48.5688 3.86002 11.5405
RightToes  5.82077e-011 -3.18055e-015 -2.98177e-016
Spine  42.9328 1.69572 15.6329
Spine1  -8.02668 8.65118 -6.193
HEad  -17.9516 -6.0717 14.618
LeftShoulder1  -3.88251e-019 9.70628e-020 -3.87848e-018
LeftArm  -9.5103 -19.0102 -59.259
LeftForeArm  3.54965 -19.8675 -0.179739
LeftHand  -5.25002 -11.3324 36.314
RightShoulder  6.22303 11.0615 27.7569
RightArm  -2.01208 -0.465197 53.0989
RightForeArm  26.8112 18.5221 -11.307
RightHand  -14.8129 12.4164 -80.2486
LeftUpLeg  -58.6751 8.73974 3.80786
LeftLeg  130.115 -15.5482 2.82671
LeftFoot  -37.93 -2.92359 -12.833
LeftToes  9.37148e-011 4.50685e-012 -4.11107e-011
156
root  -1.01924 18.607 -61.7486 43.4867 -11.0291 -1.23291
RightUpLeg  -48.8549 6.25711 0.0691394
RightLeg  119.278 20.1036 -7.49038
RightFoot  -48.4049 3.98319 11.9837
RightToes  5.82077e-011 -3.18055e-015 -2.98177e-016
Spine  43.0652 1.98446 15.0189
Spine1  -7.72219 8.67968 -6.07855
HEad  -18.4147 -5.24718 13.8107
LeftShoulder1  -3.88251e-019 9.70628e-020 -3.87848e-018
LeftArm  -10.3756 -23.2073 -58.5221
LeftForeArm  1.31055 -19.2078 0.207668
LeftHand  -4.4409 -10.6774 32.2803
RightShoulder  6.49132 11.0461 29.1718
RightArm  0.273478 0.31518 52.1063
RightForeArm  26.8348 18.1667 -10.8297
RightHand  -14.9032 12.5499 -80.1725
LeftUpLeg  -59.5226 8.8759 1.45133
LeftLeg  129.735 -17.0191 4.52047
LeftFoot  -32.8353 -3.15603 -17.4985
LeftToes  9.37148e-011 4.50685e-012 -4.11107e-011
157
root  -0.500732 18.5489 -61.1554 44.2609 -11.3849 -2.50286
RightUpLeg  -48.0698 5.91052 -0.706145
RightLeg  117.861 19.8244 -7.40431
RightFoot  -48.2076 4.13265 12.5272
RightToes  5.82077e-011 -3.18055e-015 -2.98177e-016
Spine  42.7762 1.55549 15.2476
Spine1  -7.31277 8.27488 -6.03075
HEad  -18.8539 -4.12069 13.037
LeftShoulder1  -3.88251e-019 9.70628e-020 -3.87848e-018
LeftArm  -11.1265 -27.216 -57.8763
LeftForeArm  -0.0850472 -17.8338 0.511206
LeftHand  -3.79436 -9.71186 29.5876
RightShoulder  6.77633 11.0204 30.6826
RightArm  2.73547 1.17015 51.4511
RightForeArm  26.8254 17.7502 -10.1644
RightHand  -14.8446 12.4668 -80.2102
LeftUpLeg  -59.8911 8.22246 -0.593438
LeftLeg  128.706 -19.6311 7.68031
LeftFoot  -27.6104 -2.62427 -19.7124
LeftToes  9.37148e-011 4.50685e-012 -4.11107e-011
